<svg width="24" height="24" viewBox="0 0 24 24" fill="none" xmlns="http://www.w3.org/2000/svg">
<path d="M6.72 9.56H5.78C3.7 9.56 2 7.86003 2 5.78003C2 3.70003 3.7 2 5.78 2H7.67001C9.23001 2 10.5 3.28002 10.5 4.83002V7.39001V17.1C10.5 18.14 9.64999 18.99 8.60999 18.99C7.56999 18.99 6.72 18.14 6.72 17.1V9.56Z" stroke="white" stroke-width="2" stroke-miterlimit="10" stroke-linecap="round" stroke-linejoin="round"/>
<path d="M5.78 6.71997C5.26 6.71997 4.84 6.30003 4.84 5.78003C4.84 5.26003 5.26 4.84003 5.78 4.84003" stroke="white" stroke-width="2" stroke-miterlimit="10" stroke-linecap="round" stroke-linejoin="round"/>
<path d="M17.28 9.56H18.22C20.3 9.56 22 7.86003 22 5.78003C22 3.70003 20.3 2 18.22 2H16.33C14.77 2 13.5 3.28002 13.5 4.83002V7.39001V17.1C13.5 18.14 14.35 18.99 15.39 18.99C16.43 18.99 17.28 18.14 17.28 17.1V9.56Z" stroke="white" stroke-width="2" stroke-miterlimit="10" stroke-linecap="round" stroke-linejoin="round"/>
<path d="M18.22 6.71997C18.74 6.71997 19.16 6.30003 19.16 5.78003C19.16 5.26003 18.74 4.84003 18.22 4.84003" stroke="white" stroke-width="2" stroke-miterlimit="10" stroke-linecap="round" stroke-linejoin="round"/>
<path d="M8.5 22V19" stroke="white" stroke-width="2" stroke-miterlimit="10" stroke-linecap="round" stroke-linejoin="round"/>
<path d="M15.5 22V19" stroke="white" stroke-width="2" stroke-miterlimit="10" stroke-linecap="round" stroke-linejoin="round"/>
</svg>
