<svg width="22" height="23" viewBox="0 0 22 23" fill="none" xmlns="http://www.w3.org/2000/svg">
<path d="M15.3083 17.8983H6.69167C6.30667 17.8983 5.87583 17.5958 5.7475 17.2292L1.9525 6.61416C1.41167 5.0925 2.04417 4.625 3.34583 5.56L6.92083 8.1175C7.51667 8.53 8.195 8.31916 8.45167 7.65L10.065 3.35083C10.5783 1.97583 11.4308 1.97583 11.9442 3.35083L13.5575 7.65C13.8142 8.31916 14.4925 8.53 15.0792 8.1175L18.4342 5.725C19.8642 4.69833 20.5517 5.22083 19.965 6.88L16.2617 17.2475C16.1242 17.5958 15.6933 17.8983 15.3083 17.8983Z" stroke="#292D32" stroke-width="2" stroke-linecap="round" stroke-linejoin="round"/>
<path d="M5.95831 20.6667H16.0416" stroke="#292D32" stroke-width="2" stroke-linecap="round" stroke-linejoin="round"/>
<path d="M8.70831 13.3333H13.2916" stroke="#292D32" stroke-width="2" stroke-linecap="round" stroke-linejoin="round"/>
</svg>
