<svg width="25" height="24" viewBox="0 0 25 24" fill="none" xmlns="http://www.w3.org/2000/svg">
<path d="M7.97998 18.35L11.08 20.75C11.48 21.15 12.38 21.35 12.98 21.35H16.78C17.98 21.35 19.28 20.45 19.58 19.25L21.98 11.95C22.48 10.55 21.58 9.35 20.08 9.35H16.08C15.48 9.35 14.98 8.85 15.08 8.15L15.58 4.95C15.78 4.05 15.18 3.05 14.28 2.75C13.48 2.45 12.48 2.85 12.08 3.45L7.97998 9.55" stroke="black" stroke-width="2" stroke-miterlimit="10"/>
<path d="M2.88 18.35V8.54999C2.88 7.14999 3.48 6.64999 4.88 6.64999H5.88C7.28 6.64999 7.88 7.14999 7.88 8.54999V18.35C7.88 19.75 7.28 20.25 5.88 20.25H4.88C3.48 20.25 2.88 19.75 2.88 18.35Z" stroke="black" stroke-width="2" stroke-linecap="round" stroke-linejoin="round"/>
</svg>
