<svg width="25" height="24" viewBox="0 0 25 24" fill="none" xmlns="http://www.w3.org/2000/svg">
<path d="M14.23 3.51L15.99 7.03C16.23 7.52 16.87 7.99 17.41 8.08L20.6 8.61C22.64 8.95 23.12 10.43 21.65 11.89L19.17 14.37C18.75 14.79 18.52 15.6 18.65 16.18L19.36 19.25C19.92 21.68 18.63 22.62 16.48 21.35L13.49 19.58C12.95 19.26 12.06 19.26 11.51 19.58L8.52 21.35C6.38 22.62 5.08 21.67 5.64 19.25L6.35 16.18C6.48 15.6 6.25 14.79 5.83 14.37L3.35 11.89C1.89 10.43 2.36 8.95 4.4 8.61L7.59 8.08C8.12 7.99 8.76 7.52 9 7.03L10.76 3.51C11.72 1.6 13.28 1.6 14.23 3.51Z" stroke="black" stroke-width="2" stroke-linecap="round" stroke-linejoin="round"/>
</svg>
