<svg width="88" height="30" viewBox="0 0 88 30" fill="none" xmlns="http://www.w3.org/2000/svg">
<g clip-path="url(#clip0_5_195)">
<path d="M20.5483 15.9409C20.5121 12.1447 23.6496 10.3209 23.7907 10.234C22.0247 7.6538 19.2817 7.29915 18.3046 7.25934C15.9705 7.0205 13.7485 8.6345 12.5615 8.6345C11.3746 8.6345 9.54705 7.29191 7.61099 7.33172C5.06334 7.36791 2.71473 8.81182 1.40109 11.0917C-1.24064 15.6731 0.727995 22.4765 3.30821 26.2002C4.57118 28.0205 6.06937 30.0724 8.04524 29.9964C9.94874 29.9204 10.6653 28.766 12.9596 28.766C15.2539 28.766 15.9017 29.9964 17.9101 29.9602C19.9548 29.9204 21.2503 28.1001 22.5024 26.2726C23.9427 24.1556 24.5398 22.111 24.576 22.0024C24.529 21.9843 20.5917 20.4753 20.5483 15.9409Z" fill="black"/>
<path d="M16.7738 4.79132C17.8233 3.52111 18.529 1.75875 18.3372 0C16.8281 0.0615199 15.0006 1.00603 13.9186 2.27624C12.9487 3.39807 12.0983 5.193 12.3299 6.91556C14.0054 7.04584 15.728 6.0579 16.7738 4.79132ZM33.7823 19.6719L32.0452 24.9373H29.8124L35.4976 8.20386H38.1032L43.81 24.9373H41.5012L39.7135 19.6719H33.7823ZM39.2684 17.9819L37.6327 13.1653C37.26 12.0724 37.0139 11.0808 36.7642 10.111H36.7171C36.4674 11.1025 36.196 12.1194 35.874 13.1399L34.2383 17.9783L39.2684 17.9819ZM45.5036 16.842C45.5036 15.304 45.4566 14.0591 45.4023 12.9192H47.3637L47.465 14.9819H47.5121C48.4059 13.5163 49.8209 12.6478 51.7823 12.6478C54.6882 12.6478 56.8703 15.1049 56.8703 18.7563C56.8703 23.0772 54.2395 25.2087 51.4095 25.2087C49.8209 25.2087 48.4313 24.5139 47.7111 23.3233H47.6641V29.8516H45.5036V16.842ZM47.6604 20.0446C47.6604 20.3703 47.7075 20.6635 47.7618 20.9385C48.1598 22.4511 49.4735 23.497 51.0404 23.497C53.3492 23.497 54.6918 21.6116 54.6918 18.854C54.6918 16.4439 53.4252 14.3884 51.1164 14.3884C49.6291 14.3884 48.2395 15.456 47.8124 17.0953C47.7364 17.3667 47.6641 17.6924 47.6641 17.9891L47.6604 20.0446ZM59.1285 16.842C59.1285 15.304 59.0814 14.0591 59.0272 12.9192H60.9886L61.0899 14.9819H61.1369C62.0308 13.5163 63.4457 12.6478 65.4071 12.6478C68.313 12.6478 70.4952 15.1049 70.4952 18.7563C70.4952 23.0772 67.8643 25.2087 65.0344 25.2087C63.4457 25.2087 62.0561 24.5139 61.336 23.3233H61.2889V29.8516H59.1285V16.842ZM61.2889 20.0446C61.2889 20.3703 61.336 20.6635 61.3902 20.9385C61.7883 22.4511 63.1019 23.497 64.6689 23.497C66.9777 23.497 68.3203 21.6116 68.3203 18.854C68.3203 16.4439 67.0537 14.3884 64.7449 14.3884C63.2576 14.3884 61.8679 15.456 61.4409 17.0953C61.3649 17.3667 61.2925 17.6924 61.2925 17.9891L61.2889 20.0446ZM72.757 7.31001H74.9427V24.9337H72.757V7.31001ZM79.336 19.3245C79.383 22.2774 81.272 23.497 83.4542 23.497C85.0175 23.497 85.962 23.2256 86.7799 22.8782L87.1526 24.4415C86.3854 24.7889 85.0682 25.187 83.1574 25.187C79.459 25.187 77.2479 22.7551 77.2479 19.1291C77.2479 15.503 79.383 12.6478 82.8824 12.6478C86.8052 12.6478 87.8474 16.0965 87.8474 18.3076C87.8474 18.7563 87.8004 19.1001 87.7714 19.3245H79.336ZM85.7413 17.7612C85.7666 16.3715 85.1695 14.2111 82.7123 14.2111C80.5012 14.2111 79.535 16.2485 79.3613 17.7612H85.7413Z" fill="black"/>
</g>
<defs>
<clipPath id="clip0_5_195">
<rect width="87.702" height="30" fill="white" transform="translate(0.148987)"/>
</clipPath>
</defs>
</svg>
