<svg width="138" height="30" viewBox="0 0 138 30" fill="none" xmlns="http://www.w3.org/2000/svg">
<path d="M75.0243 9.89971H78.0903V18.4284C78.0903 22.7575 75.7044 25.2405 71.548 25.2405C67.4348 25.2405 65.0706 22.8007 65.0706 18.5472V9.91051H68.1366V18.45C68.1366 20.9762 69.3781 22.3257 71.5912 22.3257C73.8044 22.3257 75.0243 21.0086 75.0243 18.5579V9.89971ZM57.751 15.9885H50.8201V9.89971H47.7541V25.0138H50.8201V18.871H57.7402V25.0138H60.8062V9.89971H57.7402V15.9885H57.751ZM134.531 9.89971V24.9922H137.554V9.89971H134.531ZM122.493 18.504H128.075V15.751H122.493V12.6526H130.59V9.91051H119.471V25.003H130.882V22.2501H122.493V18.504ZM110.467 20.2853L107.034 9.88892H104.529L101.096 20.2853L97.7602 9.89971H94.4999L99.7683 25.003H102.305L105.738 15.0817L109.171 25.003H111.73L116.988 9.89971H113.803L110.467 20.2853ZM89.048 9.98608L95.6443 25.003H92.4271L91.0668 21.8615H84.1467L84.0496 22.0774L82.7757 25.003H79.6449L86.3059 9.89971H88.9833L89.048 9.98608ZM89.7822 18.7739L87.6014 13.7106L85.4314 18.7739L85.2803 19.1193H89.9225L89.7822 18.7739Z" fill="#24272A"/>
<path d="M17.569 23.4053C17.6122 23.3729 17.623 23.3081 17.6014 23.2542C14.6246 16.8558 10.9109 10.8269 6.53572 5.28994C6.53572 5.28994 3.05947 8.59346 3.30778 11.9078C3.36594 12.6719 3.57418 13.417 3.92059 14.1006C4.267 14.7841 4.74478 15.3927 5.32659 15.8914C8.36021 18.8495 15.7014 22.5848 17.4071 23.4377C17.4611 23.4593 17.5258 23.4485 17.569 23.4053ZM16.4355 25.9315C16.4139 25.8667 16.3491 25.8236 16.2735 25.8236L4.05269 26.2446C5.38057 28.6089 7.6153 30.4442 9.9364 29.8828C11.545 29.4833 15.1724 26.9463 16.3707 26.0827C16.4679 26.0071 16.4355 25.9423 16.4355 25.9315ZM16.619 24.8411C16.6838 24.744 16.5758 24.6576 16.5758 24.6576C11.2103 21.0302 0.80315 15.4596 0.80315 15.4596C0.458201 16.5169 0.361704 17.6395 0.521158 18.7401C0.680612 19.8408 1.09172 20.8899 1.72254 21.8058C2.35335 22.7217 3.18688 23.4799 4.15834 24.0213C5.1298 24.5627 6.21302 24.8728 7.32381 24.9275C7.50734 24.9599 14.5894 24.9275 16.4895 24.9167C16.5434 24.9059 16.5866 24.8843 16.619 24.8411ZM17.4287 0.0107958C16.8997 0.053979 15.4639 0.388649 15.4639 0.388649C12.2251 1.21993 11.4586 4.16718 11.4586 4.16718C10.8648 6.01326 11.4694 8.05367 11.4694 8.05367C12.549 12.847 17.8605 20.7387 19.0049 22.3905C19.0804 22.4769 19.1452 22.4445 19.1452 22.4445C19.21 22.4229 19.264 22.3689 19.264 22.2933C21.0345 4.67458 17.4287 0.0107958 17.4287 0.0107958ZM21.4771 22.4229C21.5419 22.4445 21.6175 22.4229 21.6498 22.3581C22.8266 20.6632 28.1057 12.8146 29.1853 8.04287C29.1853 8.04287 29.7683 5.73257 29.2069 4.15638C29.2069 4.15638 28.408 1.16595 25.1693 0.377853C25.1693 0.377853 24.2408 0.140345 23.2476 0C23.2476 0 19.6202 4.66379 21.3907 22.2825C21.3799 22.3473 21.4231 22.4013 21.4771 22.4229ZM24.3704 25.8344C24.3416 25.8402 24.3143 25.8518 24.2902 25.8685C24.2661 25.8852 24.2456 25.9066 24.23 25.9315C24.2192 25.9963 24.23 26.0503 24.2732 26.0935C25.4392 26.9355 28.991 29.4186 30.6967 29.8936C30.6967 29.8936 33.8599 30.9732 36.602 26.2554L24.3704 25.8344ZM39.8624 15.438C39.8624 15.438 29.4768 21.0194 24.1005 24.6468C24.0465 24.69 24.0141 24.7548 24.0357 24.8195C24.0357 24.8195 24.0897 24.9167 24.1653 24.9167C26.0869 24.9167 33.3633 24.9275 33.5576 24.8951C34.2809 24.8411 34.9935 24.6792 35.6628 24.4093C35.6628 24.4093 38.2538 23.5888 39.5925 20.6416C39.5925 20.6416 40.7908 18.2449 39.8624 15.438ZM23.1181 23.4053C23.1613 23.4377 23.226 23.4485 23.28 23.4161C25.0289 22.5416 32.3161 18.8387 35.3281 15.8914C35.3281 15.8914 37.239 14.3584 37.3361 11.8862C37.5521 8.46391 34.1082 5.28994 34.1082 5.28994C34.1082 5.28994 27.7387 13.0089 23.0641 23.211C23.0566 23.2453 23.0576 23.281 23.067 23.3148C23.0764 23.3487 23.0939 23.3797 23.1181 23.4053Z" fill="#CE0E2D"/>
</svg>
