<svg width="157" height="42" viewBox="0 0 157 42" fill="none" xmlns="http://www.w3.org/2000/svg">
<path d="M22.0247 33.1116C22.0606 29.4402 21.1298 26.4546 19.9458 26.443C18.7617 26.4314 17.7727 29.3983 17.7369 33.0697C17.701 36.7411 18.6318 39.7268 19.8158 39.7383C20.9999 39.7499 21.9888 36.783 22.0247 33.1116Z" fill="#FFC736"/>
<path d="M15.1576 32.2777C17.1728 29.2086 18.0041 26.1937 17.0144 25.5438C16.0245 24.8939 13.5884 26.855 11.5732 29.9241C9.55797 32.9933 8.72669 36.0081 9.71645 36.6581C10.7063 37.308 13.1423 35.3469 15.1576 32.2777Z" fill="#FFC736"/>
<path d="M9.82334 27.8744C13.1781 26.3822 15.5074 24.2955 15.0261 23.2136C14.5449 22.1317 11.4353 22.4643 8.08062 23.9565C4.72593 25.4487 2.39655 27.5354 2.87779 28.6174C3.35902 29.6993 6.46865 29.3666 9.82334 27.8744Z" fill="#FFC736"/>
<path d="M14.6235 20.1796C14.8037 19.0093 12.0079 17.6078 8.37911 17.0492C4.75022 16.4907 1.66243 16.9867 1.4823 18.157C1.30217 19.3273 4.09791 20.7287 7.72678 21.2873C11.3556 21.8459 14.4434 21.3499 14.6235 20.1796Z" fill="#FFC736"/>
<path d="M15.9264 17.3916C16.7106 16.5044 15.116 13.8141 12.3649 11.3826C9.61375 8.95121 6.74784 7.6994 5.9637 8.58665C5.17956 9.47392 6.77412 12.1642 9.52527 14.5957C12.2764 17.0271 15.1423 18.2789 15.9264 17.3916Z" fill="#FFC736"/>
<path d="M18.5211 15.7623C19.6605 15.4399 19.7737 12.3145 18.774 8.78164C17.7743 5.24877 16.0402 2.64618 14.9009 2.96859C13.7615 3.29099 13.6483 6.41631 14.648 9.94921C15.6477 13.482 17.3818 16.0847 18.5211 15.7623Z" fill="#FFC736"/>
<path d="M25.5667 10.0591C26.6359 6.54664 26.5844 3.4197 25.4516 3.07489C24.3188 2.73007 22.5338 5.29796 21.4646 8.81043C20.3954 12.3229 20.447 15.4498 21.5798 15.7946C22.7126 16.1394 24.4976 13.5716 25.5667 10.0591Z" fill="#FFC736"/>
<path d="M30.6011 14.8052C33.3993 12.428 35.0461 9.76935 34.2794 8.86698C33.5128 7.96458 30.6229 9.16015 27.8249 11.5373C25.0267 13.9145 23.3799 16.5731 24.1465 17.4755C24.9132 18.3779 27.803 17.1824 30.6011 14.8052Z" fill="#FFC736"/>
<path d="M32.2658 21.5215C35.905 21.0346 38.7278 19.6885 38.5707 18.5149C38.4138 17.3413 35.3363 16.7845 31.6971 17.2713C28.058 17.7582 25.2351 19.1043 25.3922 20.278C25.5492 21.4516 28.6266 22.0084 32.2658 21.5215Z" fill="#FFC736"/>
<path d="M36.9603 28.9528C37.4628 27.8806 35.175 25.7484 31.8504 24.1903C28.5258 22.6322 25.4234 22.2384 24.9209 23.3106C24.4184 24.3828 26.7062 26.515 30.0308 28.0731C33.3554 29.6311 36.4579 30.025 36.9603 28.9528Z" fill="#FFC736"/>
<path d="M29.9671 36.8639C30.9695 36.2337 30.1978 33.203 28.2435 30.0947C26.2892 26.9865 23.8922 24.9778 22.8898 25.608C21.8874 26.2382 22.6591 29.269 24.6134 32.3772C26.5678 35.4854 28.9647 37.4942 29.9671 36.8639Z" fill="#FFC736"/>
<path d="M61.524 20.808C62.7187 21.088 63.6613 21.6667 64.352 22.544C65.0613 23.4213 65.416 24.4387 65.416 25.596C65.416 27.2947 64.8467 28.62 63.708 29.572C62.588 30.524 60.9733 31 58.864 31H49.652V11.204H58.64C60.656 11.204 62.2147 11.6427 63.316 12.52C64.4173 13.3973 64.968 14.648 64.968 16.272C64.968 17.4667 64.6507 18.4653 64.016 19.268C63.3813 20.052 62.5507 20.5653 61.524 20.808ZM54.44 19.296H57.576C59.2373 19.296 60.068 18.5867 60.068 17.168C60.068 15.7493 59.2187 15.04 57.52 15.04H54.44V19.296ZM57.856 27.108C59.6293 27.108 60.516 26.38 60.516 24.924C60.516 24.2147 60.2827 23.664 59.816 23.272C59.3493 22.8613 58.6867 22.656 57.828 22.656H54.44V27.108H57.856ZM82.785 22.768C82.785 23.16 82.7383 23.5893 82.645 24.056H71.809C71.865 25.232 72.1636 26.0813 72.705 26.604C73.2463 27.108 73.937 27.36 74.777 27.36C75.4863 27.36 76.0743 27.1827 76.541 26.828C77.0076 26.4733 77.3156 26.016 77.465 25.456H82.533C82.3276 26.5573 81.8796 27.5467 81.189 28.424C80.4983 29.2827 79.621 29.964 78.557 30.468C77.493 30.9533 76.3076 31.196 75.001 31.196C73.4703 31.196 72.1076 30.8787 70.913 30.244C69.737 29.5907 68.813 28.6573 68.141 27.444C67.469 26.2307 67.133 24.812 67.133 23.188C67.133 21.5453 67.4596 20.1267 68.113 18.932C68.785 17.7187 69.7183 16.7947 70.913 16.16C72.1076 15.5067 73.4703 15.18 75.001 15.18C76.5503 15.18 77.913 15.4973 79.089 16.132C80.265 16.7667 81.1703 17.6627 81.805 18.82C82.4583 19.9587 82.785 21.2747 82.785 22.768ZM77.941 22.04C77.9596 21.0133 77.6796 20.248 77.101 19.744C76.541 19.2213 75.841 18.96 75.001 18.96C74.1236 18.96 73.3956 19.2213 72.817 19.744C72.2383 20.2667 71.9116 21.032 71.837 22.04H77.941ZM90.0689 10.28V31H85.2809V10.28H90.0689ZM99.3107 15.18C100.505 15.18 101.532 15.4507 102.391 15.992C103.249 16.5333 103.884 17.2707 104.295 18.204V15.376H109.055V31H104.295V28.172C103.884 29.1053 103.249 29.8427 102.391 30.384C101.532 30.9253 100.505 31.196 99.3107 31.196C98.0227 31.196 96.8653 30.8787 95.8387 30.244C94.8307 29.5907 94.028 28.6573 93.4307 27.444C92.852 26.2307 92.5627 24.812 92.5627 23.188C92.5627 21.5453 92.852 20.1267 93.4307 18.932C94.028 17.7187 94.8307 16.7947 95.8387 16.16C96.8653 15.5067 98.0227 15.18 99.3107 15.18ZM100.851 19.38C99.824 19.38 98.9933 19.716 98.3587 20.388C97.7427 21.06 97.4347 21.9933 97.4347 23.188C97.4347 24.3827 97.7427 25.316 98.3587 25.988C98.9933 26.66 99.824 26.996 100.851 26.996C101.859 26.996 102.68 26.6507 103.315 25.96C103.968 25.2693 104.295 24.3453 104.295 23.188C104.295 22.012 103.968 21.088 103.315 20.416C102.68 19.7253 101.859 19.38 100.851 19.38ZM122.263 15.208C124.055 15.208 125.474 15.8053 126.519 17C127.583 18.1947 128.115 19.8373 128.115 21.928V31H123.327V22.488C123.327 21.4427 123.047 20.6307 122.487 20.052C121.946 19.4547 121.218 19.156 120.303 19.156C119.333 19.156 118.558 19.464 117.979 20.08C117.419 20.696 117.139 21.5733 117.139 22.712V31H112.351V15.376H117.139V18.232C117.587 17.2987 118.25 16.5613 119.127 16.02C120.023 15.4787 121.069 15.208 122.263 15.208ZM133.709 13.472C132.85 13.472 132.16 13.2387 131.637 12.772C131.114 12.2867 130.853 11.6893 130.853 10.98C130.853 10.252 131.114 9.65467 131.637 9.188C132.16 8.70267 132.85 8.46 133.709 8.46C134.568 8.46 135.258 8.70267 135.781 9.188C136.304 9.65467 136.565 10.252 136.565 10.98C136.565 11.6893 136.304 12.2867 135.781 12.772C135.258 13.2387 134.568 13.472 133.709 13.472ZM128.725 34.332H129.901C130.405 34.332 130.769 34.22 130.993 33.996C131.217 33.7907 131.329 33.436 131.329 32.932V15.376H136.145V32.876C136.145 36.5907 134.278 38.448 130.545 38.448H128.725V34.332ZM145.33 15.18C146.525 15.18 147.552 15.4507 148.41 15.992C149.269 16.5333 149.904 17.2707 150.314 18.204V15.376H155.074V31H150.314V28.172C149.904 29.1053 149.269 29.8427 148.41 30.384C147.552 30.9253 146.525 31.196 145.33 31.196C144.042 31.196 142.885 30.8787 141.858 30.244C140.85 29.5907 140.048 28.6573 139.45 27.444C138.872 26.2307 138.582 24.812 138.582 23.188C138.582 21.5453 138.872 20.1267 139.45 18.932C140.048 17.7187 140.85 16.7947 141.858 16.16C142.885 15.5067 144.042 15.18 145.33 15.18ZM146.87 19.38C145.844 19.38 145.013 19.716 144.378 20.388C143.762 21.06 143.454 21.9933 143.454 23.188C143.454 24.3827 143.762 25.316 144.378 25.988C145.013 26.66 145.844 26.996 146.87 26.996C147.878 26.996 148.7 26.6507 149.334 25.96C149.988 25.2693 150.314 24.3453 150.314 23.188C150.314 22.012 149.988 21.088 149.334 20.416C148.7 19.7253 147.878 19.38 146.87 19.38Z" fill="white"/>
</svg>
