<svg width="158" height="42" viewBox="0 0 158 42" fill="none" xmlns="http://www.w3.org/2000/svg">
<path d="M22.5246 33.1116C22.5605 29.4402 21.6297 26.4546 20.4457 26.443C19.2616 26.4314 18.2727 29.3983 18.2368 33.0697C18.2009 36.7411 19.1317 39.7268 20.3157 39.7383C21.4998 39.7499 22.4888 36.783 22.5246 33.1116Z" fill="#FFC736"/>
<path d="M15.6577 32.2778C17.673 29.2086 18.5043 26.1938 17.5145 25.5438C16.5247 24.8939 14.0886 26.855 12.0734 29.9242C10.0581 32.9933 9.22681 36.0081 10.2166 36.6581C11.2064 37.308 13.6424 35.3469 15.6577 32.2778Z" fill="#FFC736"/>
<path d="M10.3235 27.8744C13.6782 26.3822 16.0075 24.2955 15.5263 23.2136C15.0451 22.1317 11.9355 22.4643 8.58074 23.9566C5.22605 25.4487 2.89667 27.5354 3.37791 28.6174C3.85914 29.6993 6.96877 29.3666 10.3235 27.8744Z" fill="#FFC736"/>
<path d="M15.1236 20.1796C15.3037 19.0093 12.508 17.6078 8.87917 17.0492C5.25028 16.4906 2.16249 16.9866 1.98236 18.157C1.80223 19.3273 4.59797 20.7287 8.22684 21.2873C11.8557 21.8458 14.9435 21.3498 15.1236 20.1796Z" fill="#FFC736"/>
<path d="M16.4266 17.3916C17.2107 16.5044 15.6162 13.8141 12.8651 11.3826C10.1139 8.95121 7.24803 7.6994 6.46388 8.58665C5.67974 9.47392 7.2743 12.1642 10.0255 14.5957C12.7766 17.0271 15.6425 18.2789 16.4266 17.3916Z" fill="#FFC736"/>
<path d="M19.021 15.7622C20.1604 15.4398 20.2736 12.3145 19.2739 8.78163C18.2742 5.24875 16.5401 2.64616 15.4008 2.96857C14.2614 3.29098 14.1482 6.41629 15.1479 9.94919C16.1476 13.482 17.8816 16.0846 19.021 15.7622Z" fill="#FFC736"/>
<path d="M26.0668 10.0591C27.136 6.54664 27.0845 3.4197 25.9517 3.07489C24.8189 2.73007 23.0338 5.29796 21.9646 8.81043C20.8955 12.3229 20.947 15.4498 22.0798 15.7946C23.2126 16.1394 24.9977 13.5716 26.0668 10.0591Z" fill="#FFC736"/>
<path d="M31.1011 14.8052C33.8993 12.428 35.5461 9.76935 34.7794 8.86698C34.0128 7.96458 31.1229 9.16015 28.3249 11.5373C25.5267 13.9145 23.8799 16.5731 24.6465 17.4755C25.4132 18.3779 28.303 17.1824 31.1011 14.8052Z" fill="#FFC736"/>
<path d="M32.7656 21.5215C36.4048 21.0346 39.2276 19.6886 39.0706 18.5149C38.9136 17.3413 35.8361 16.7846 32.1969 17.2714C28.5578 17.7582 25.7349 19.1043 25.892 20.278C26.049 21.4516 29.1264 22.0084 32.7656 21.5215Z" fill="#FFC736"/>
<path d="M37.4602 28.9528C37.9627 27.8806 35.6749 25.7484 32.3503 24.1903C29.0257 22.6322 25.9232 22.2384 25.4208 23.3106C24.9183 24.3828 27.206 26.515 30.5307 28.0731C33.8552 29.6311 36.9577 30.025 37.4602 28.9528Z" fill="#FFC736"/>
<path d="M30.4671 36.8639C31.4695 36.2337 30.6978 33.203 28.7435 30.0947C26.7892 26.9865 24.3922 24.9778 23.3898 25.608C22.3874 26.2382 23.1591 29.269 25.1134 32.3772C27.0678 35.4854 29.4647 37.4942 30.4671 36.8639Z" fill="#FFC736"/>
<path d="M62.024 20.808C63.2187 21.088 64.1613 21.6667 64.852 22.544C65.5613 23.4213 65.916 24.4387 65.916 25.596C65.916 27.2947 65.3467 28.62 64.208 29.572C63.088 30.524 61.4733 31 59.364 31H50.152V11.204H59.14C61.156 11.204 62.7147 11.6427 63.816 12.52C64.9173 13.3973 65.468 14.648 65.468 16.272C65.468 17.4667 65.1507 18.4653 64.516 19.268C63.8813 20.052 63.0507 20.5653 62.024 20.808ZM54.94 19.296H58.076C59.7373 19.296 60.568 18.5867 60.568 17.168C60.568 15.7493 59.7187 15.04 58.02 15.04H54.94V19.296ZM58.356 27.108C60.1293 27.108 61.016 26.38 61.016 24.924C61.016 24.2147 60.7827 23.664 60.316 23.272C59.8493 22.8613 59.1867 22.656 58.328 22.656H54.94V27.108H58.356ZM83.285 22.768C83.285 23.16 83.2383 23.5893 83.145 24.056H72.309C72.365 25.232 72.6636 26.0813 73.205 26.604C73.7463 27.108 74.437 27.36 75.277 27.36C75.9863 27.36 76.5743 27.1827 77.041 26.828C77.5076 26.4733 77.8156 26.016 77.965 25.456H83.033C82.8276 26.5573 82.3796 27.5467 81.689 28.424C80.9983 29.2827 80.121 29.964 79.057 30.468C77.993 30.9533 76.8076 31.196 75.501 31.196C73.9703 31.196 72.6076 30.8787 71.413 30.244C70.237 29.5907 69.313 28.6573 68.641 27.444C67.969 26.2307 67.633 24.812 67.633 23.188C67.633 21.5453 67.9596 20.1267 68.613 18.932C69.285 17.7187 70.2183 16.7947 71.413 16.16C72.6076 15.5067 73.9703 15.18 75.501 15.18C77.0503 15.18 78.413 15.4973 79.589 16.132C80.765 16.7667 81.6703 17.6627 82.305 18.82C82.9583 19.9587 83.285 21.2747 83.285 22.768ZM78.441 22.04C78.4596 21.0133 78.1796 20.248 77.601 19.744C77.041 19.2213 76.341 18.96 75.501 18.96C74.6236 18.96 73.8956 19.2213 73.317 19.744C72.7383 20.2667 72.4116 21.032 72.337 22.04H78.441ZM90.5689 10.28V31H85.7809V10.28H90.5689ZM99.8107 15.18C101.005 15.18 102.032 15.4507 102.891 15.992C103.749 16.5333 104.384 17.2707 104.795 18.204V15.376H109.555V31H104.795V28.172C104.384 29.1053 103.749 29.8427 102.891 30.384C102.032 30.9253 101.005 31.196 99.8107 31.196C98.5227 31.196 97.3653 30.8787 96.3387 30.244C95.3307 29.5907 94.528 28.6573 93.9307 27.444C93.352 26.2307 93.0627 24.812 93.0627 23.188C93.0627 21.5453 93.352 20.1267 93.9307 18.932C94.528 17.7187 95.3307 16.7947 96.3387 16.16C97.3653 15.5067 98.5227 15.18 99.8107 15.18ZM101.351 19.38C100.324 19.38 99.4933 19.716 98.8587 20.388C98.2427 21.06 97.9347 21.9933 97.9347 23.188C97.9347 24.3827 98.2427 25.316 98.8587 25.988C99.4933 26.66 100.324 26.996 101.351 26.996C102.359 26.996 103.18 26.6507 103.815 25.96C104.468 25.2693 104.795 24.3453 104.795 23.188C104.795 22.012 104.468 21.088 103.815 20.416C103.18 19.7253 102.359 19.38 101.351 19.38ZM122.763 15.208C124.555 15.208 125.974 15.8053 127.019 17C128.083 18.1947 128.615 19.8373 128.615 21.928V31H123.827V22.488C123.827 21.4427 123.547 20.6307 122.987 20.052C122.446 19.4547 121.718 19.156 120.803 19.156C119.833 19.156 119.058 19.464 118.479 20.08C117.919 20.696 117.639 21.5733 117.639 22.712V31H112.851V15.376H117.639V18.232C118.087 17.2987 118.75 16.5613 119.627 16.02C120.523 15.4787 121.569 15.208 122.763 15.208ZM134.209 13.472C133.35 13.472 132.66 13.2387 132.137 12.772C131.614 12.2867 131.353 11.6893 131.353 10.98C131.353 10.252 131.614 9.65467 132.137 9.188C132.66 8.70267 133.35 8.46 134.209 8.46C135.068 8.46 135.758 8.70267 136.281 9.188C136.804 9.65467 137.065 10.252 137.065 10.98C137.065 11.6893 136.804 12.2867 136.281 12.772C135.758 13.2387 135.068 13.472 134.209 13.472ZM129.225 34.332H130.401C130.905 34.332 131.269 34.22 131.493 33.996C131.717 33.7907 131.829 33.436 131.829 32.932V15.376H136.645V32.876C136.645 36.5907 134.778 38.448 131.045 38.448H129.225V34.332ZM145.83 15.18C147.025 15.18 148.052 15.4507 148.91 15.992C149.769 16.5333 150.404 17.2707 150.814 18.204V15.376H155.574V31H150.814V28.172C150.404 29.1053 149.769 29.8427 148.91 30.384C148.052 30.9253 147.025 31.196 145.83 31.196C144.542 31.196 143.385 30.8787 142.358 30.244C141.35 29.5907 140.548 28.6573 139.95 27.444C139.372 26.2307 139.082 24.812 139.082 23.188C139.082 21.5453 139.372 20.1267 139.95 18.932C140.548 17.7187 141.35 16.7947 142.358 16.16C143.385 15.5067 144.542 15.18 145.83 15.18ZM147.37 19.38C146.344 19.38 145.513 19.716 144.878 20.388C144.262 21.06 143.954 21.9933 143.954 23.188C143.954 24.3827 144.262 25.316 144.878 25.988C145.513 26.66 146.344 26.996 147.37 26.996C148.378 26.996 149.2 26.6507 149.834 25.96C150.488 25.2693 150.814 24.3453 150.814 23.188C150.814 22.012 150.488 21.088 149.834 20.416C149.2 19.7253 148.378 19.38 147.37 19.38Z" fill="black"/>
</svg>
