<svg width="142" height="30" viewBox="0 0 142 30" fill="none" xmlns="http://www.w3.org/2000/svg">
<g clip-path="url(#clip0_5_223)">
<path d="M50.3604 17.2791L49.5232 19.6512H49.4535C49.3139 19.1163 49.0581 18.3023 48.6395 17.3256L44.1511 6.04653H39.7558V24.0233H42.6628V12.9303C42.6628 12.2326 42.6628 11.4419 42.6395 10.4651C42.6163 9.97676 42.5698 9.60467 42.5465 9.3256H42.6163C42.7558 10.0233 42.9186 10.5349 43.0349 10.8605L48.4302 23.9768H50.4767L55.8256 10.7442C55.9418 10.4419 56.0581 9.83723 56.1744 9.3256H56.2442C56.1744 10.6512 56.1279 11.8372 56.1046 12.5582V23.9535H59.1977V6.00002H54.9651L50.3604 17.2791ZM62.1279 11.0698H65.1511V23.9535H62.1279V11.0698ZM63.6628 5.62793C63.1511 5.62793 62.7325 5.81397 62.3837 6.13955C62.0349 6.46514 61.8488 6.88374 61.8488 7.39537C61.8488 7.88374 62.0349 8.30235 62.3837 8.62793C62.7325 8.95351 63.1511 9.1163 63.6628 9.1163C64.1744 9.1163 64.6163 8.93025 64.9418 8.62793C65.2907 8.30235 65.4767 7.88374 65.4767 7.39537C65.4767 6.907 65.2907 6.48839 64.9418 6.13955C64.6395 5.81397 64.1977 5.62793 63.6628 5.62793ZM75.8721 10.9535C75.3139 10.8372 74.7325 10.7675 74.1744 10.7675C72.8023 10.7675 71.5465 11.0698 70.5 11.6744C69.4535 12.2791 68.6163 13.1163 68.0814 14.1628C67.5232 15.2326 67.2442 16.4651 67.2442 17.8837C67.2442 19.1163 67.5232 20.2093 68.0581 21.2093C68.593 22.1861 69.3372 22.9768 70.3372 23.5116C71.2907 24.0465 72.407 24.3256 73.6628 24.3256C75.1046 24.3256 76.3372 24.0233 77.3139 23.4651L77.3372 23.4419V20.6512L77.2209 20.7442C76.7791 21.0698 76.2674 21.3489 75.7558 21.5116C75.2209 21.6977 74.7325 21.7907 74.3139 21.7907C73.1046 21.7907 72.1511 21.4419 71.4767 20.6744C70.7791 19.9303 70.4302 18.907 70.4302 17.6279C70.4302 16.3023 70.7791 15.2558 71.5 14.4884C72.2209 13.721 73.1744 13.3256 74.3372 13.3256C75.3139 13.3256 76.3139 13.6512 77.2209 14.3023L77.3372 14.3954V11.4419L77.3139 11.4186C76.9186 11.2558 76.4767 11.0698 75.8721 10.9535ZM85.8488 10.8605C85.1046 10.8605 84.407 11.093 83.8023 11.5814C83.2907 12 82.9418 12.6047 82.6395 13.3256H82.6163V11.0698H79.593V23.9535H82.6163V17.3721C82.6163 16.2558 82.8488 15.3256 83.3605 14.6512C83.8721 13.9535 84.5232 13.6047 85.3139 13.6047C85.593 13.6047 85.8721 13.6744 86.2209 13.721C86.5465 13.814 86.7791 13.907 86.9419 14.0233L87.0581 14.1163V11.093L86.9884 11.0698C86.7791 10.9303 86.3605 10.8605 85.8488 10.8605ZM94.0814 10.7907C91.9651 10.7907 90.2674 11.4186 89.0814 12.6512C87.8721 13.8837 87.2907 15.5814 87.2907 17.721C87.2907 19.721 87.8953 21.3489 89.0581 22.5349C90.2209 23.6977 91.8023 24.3023 93.7791 24.3023C95.8488 24.3023 97.5 23.6744 98.686 22.4186C99.8953 21.1628 100.477 19.4884 100.477 17.4186C100.477 15.3721 99.9186 13.7442 98.7791 12.5582C97.686 11.3721 96.0814 10.7907 94.0814 10.7907ZM96.5 20.6977C95.9419 21.4186 95.0581 21.7675 93.9651 21.7675C92.8721 21.7675 91.9884 21.4186 91.3605 20.6512C90.7325 19.9303 90.4302 18.8837 90.4302 17.5582C90.4302 16.1861 90.7558 15.1396 91.3605 14.3954C91.9884 13.6512 92.8488 13.2791 93.9419 13.2791C95.0116 13.2791 95.8488 13.6279 96.4535 14.3489C97.0581 15.0698 97.3837 16.1163 97.3837 17.4884C97.3372 18.8837 97.0814 19.9768 96.5 20.6977ZM107.221 16.4186C106.267 16.0233 105.663 15.721 105.384 15.4651C105.151 15.2326 105.035 14.907 105.035 14.4884C105.035 14.1396 105.174 13.7907 105.523 13.5582C105.872 13.3256 106.267 13.2093 106.849 13.2093C107.36 13.2093 107.895 13.3023 108.407 13.4419C108.919 13.5814 109.384 13.7907 109.756 14.0698L109.872 14.1628V11.3256L109.802 11.3023C109.453 11.1628 108.988 11.0233 108.43 10.907C107.872 10.814 107.36 10.7675 106.942 10.7675C105.5 10.7675 104.314 11.1163 103.384 11.8837C102.453 12.6047 102.012 13.5814 102.012 14.721C102.012 15.3256 102.105 15.8605 102.314 16.3023C102.523 16.7442 102.826 17.1628 103.244 17.5116C103.663 17.8372 104.267 18.2093 105.105 18.5582C105.802 18.8605 106.337 19.093 106.663 19.2791C106.988 19.4651 107.198 19.6744 107.36 19.8372C107.477 20.0233 107.547 20.2558 107.547 20.5582C107.547 21.4186 106.895 21.8372 105.57 21.8372C105.058 21.8372 104.523 21.7442 103.895 21.5349C103.267 21.3256 102.686 21.0233 102.198 20.6744L102.081 20.5814V23.5349L102.151 23.5582C102.593 23.7675 103.128 23.907 103.779 24.0698C104.43 24.1861 105.012 24.2791 105.523 24.2791C107.081 24.2791 108.36 23.9303 109.267 23.1628C110.198 22.4186 110.686 21.4651 110.686 20.2326C110.686 19.3721 110.453 18.6047 109.942 18.0233C109.267 17.4651 108.43 16.8837 107.221 16.4186ZM118.663 10.7907C116.547 10.7907 114.849 11.4186 113.663 12.6512C112.477 13.8837 111.872 15.5814 111.872 17.721C111.872 19.721 112.477 21.3489 113.64 22.5349C114.802 23.6977 116.384 24.3023 118.36 24.3023C120.43 24.3023 122.081 23.6744 123.267 22.4186C124.477 21.1628 125.058 19.4884 125.058 17.4186C125.058 15.3721 124.5 13.7442 123.36 12.5582C122.267 11.3721 120.663 10.7907 118.663 10.7907ZM121.058 20.6977C120.5 21.4186 119.616 21.7675 118.523 21.7675C117.407 21.7675 116.547 21.4186 115.919 20.6512C115.291 19.9303 114.988 18.8837 114.988 17.5582C114.988 16.1861 115.314 15.1396 115.919 14.3954C116.547 13.6512 117.407 13.2791 118.5 13.2791C119.547 13.2791 120.407 13.6279 121.012 14.3489C121.616 15.0698 121.942 16.1163 121.942 17.4884C121.942 18.8837 121.64 19.9768 121.058 20.6977ZM141.221 13.5582V11.0698H138.174V7.25583L138.081 7.27909L135.198 8.13955L135.128 8.16281V11.0698H130.57V9.44188C130.57 8.69769 130.756 8.1163 131.081 7.74421C131.407 7.37211 131.895 7.18607 132.5 7.18607C132.919 7.18607 133.36 7.27909 133.849 7.48839L133.965 7.55816V4.93025L133.895 4.907C133.477 4.76746 132.919 4.67444 132.198 4.67444C131.291 4.67444 130.5 4.88374 129.779 5.23258C129.058 5.62793 128.523 6.16281 128.128 6.88374C127.733 7.58142 127.523 8.37211 127.523 9.27909V11.0698H125.407V13.5349H127.523V23.9535H130.57V13.5582H135.128V20.1861C135.128 22.907 136.407 24.2791 138.965 24.2791C139.384 24.2791 139.826 24.2093 140.244 24.1396C140.686 24.0465 141.012 23.9303 141.198 23.8372L141.221 23.814V21.3256L141.105 21.4186C140.919 21.5349 140.756 21.6279 140.477 21.6977C140.244 21.7675 140.035 21.7907 139.872 21.7907C139.267 21.7907 138.849 21.6512 138.547 21.3023C138.267 20.9768 138.128 20.4419 138.128 19.6512V13.5582H141.221Z" fill="#737373"/>
<path d="M0.779297 0H15.0351V14.2558H0.779297V0Z" fill="#F25022"/>
<path d="M16.5233 0H30.7791V14.2558H16.5233V0Z" fill="#7FBA00"/>
<path d="M0.779053 15.7441H15.0349V30H0.779053V15.7441Z" fill="#00A4EF"/>
<path d="M16.5233 15.7441H30.7791V30H16.5233V15.7441Z" fill="#FFB900"/>
</g>
<defs>
<clipPath id="clip0_5_223">
<rect width="140.449" height="30" fill="white" transform="translate(0.775269)"/>
</clipPath>
</defs>
</svg>
