<svg width="120" height="20" viewBox="0 0 120 20" fill="none" xmlns="http://www.w3.org/2000/svg">
<g clip-path="url(#clip0_5_208)">
<path d="M6.38373 19.7532H0.670258V0.323755H10.5516L21.8876 14.829V0.323755H27.601V19.7532H17.9199L6.38373 5.00038V19.7532ZM54.9378 13.7455C54.9378 16.4463 54.4605 17.377 53.6693 18.2705C52.457 19.6004 50.6941 20 47.2955 20H37.5404C34.1417 20 32.3766 19.6 31.1654 18.2705C30.3757 17.3777 29.8973 16.4463 29.8973 13.7455V6.25559C29.8973 3.55524 30.3757 2.62491 31.1654 1.73061C32.3766 0.399575 34.1421 0 37.5404 0H47.2959C50.6941 0 52.4574 0.399955 53.6693 1.73061C54.4602 2.62454 54.9378 3.55486 54.9378 6.25559V13.7455ZM47.0555 15.0766C48.3604 15.0766 48.8206 15.0004 49.133 14.7157C49.4264 14.4495 49.5557 14.1072 49.5557 12.9657V7.03465C49.5557 5.89355 49.4264 5.55311 49.133 5.28584C48.8206 5.00038 48.3604 4.92494 47.0555 4.92494H37.7796C36.4747 4.92494 36.0149 5.00038 35.7032 5.28584C35.4091 5.55311 35.2805 5.89393 35.2805 7.03465V12.9657C35.2805 14.1068 35.4087 14.4495 35.7032 14.7157C36.0149 15.0004 36.4747 15.0766 37.7796 15.0766H47.0555ZM63.241 0.323755V19.7532H57.2712V0.323755H63.241ZM73.327 0.323755H81.2082L70.5717 9.41201L82.5684 19.7532H74.1349L63.241 9.62014L73.327 0.323755ZM83.6697 0.323755H89.6414V19.7532H83.6697V0.323755ZM112.404 19.7532L110.638 16.3686H99.0848L97.3395 19.7532H90.7438L101.326 0.323376H108.747L119.33 19.7532H112.404ZM101.159 12.1484H108.583L104.87 5.11411L101.159 12.1484Z" fill="#1C4598"/>
</g>
<defs>
<clipPath id="clip0_5_208">
<rect width="118.765" height="20" fill="white" transform="translate(0.617584)"/>
</clipPath>
</defs>
</svg>
