<svg width="92" height="30" viewBox="0 0 92 30" fill="none" xmlns="http://www.w3.org/2000/svg">
<g clip-path="url(#clip0_5_181)">
<path d="M91.1244 7.14229C89.8958 0.0872834 68.6979 -2.11437 43.7758 2.22458C33.3094 4.04774 23.8588 6.7368 16.4991 9.76204C17.6296 9.7868 18.468 10.046 18.9775 10.5541C19.3758 10.9529 19.577 11.5001 19.577 12.182V12.8818H17.1332V12.2639C17.1332 11.749 16.8244 11.4299 16.2776 11.4299C15.8181 11.4299 15.5351 11.6374 15.4437 12.0461C15.4131 12.2076 15.4164 12.3737 15.4536 12.5339C15.7151 13.6028 19.3438 14.2666 19.7385 16.2392C19.7903 16.493 19.8605 17.0362 19.7498 17.8135C19.5234 19.4044 18.1255 20.0183 16.346 20.0183C13.8622 20.0183 12.8532 18.8418 12.8532 17.2199L12.855 16.4525H15.4747L15.4761 17.4084C15.4761 17.9458 15.8667 18.2424 16.3987 18.2424C16.9028 18.2424 17.1971 18.0394 17.2988 17.6244C17.3461 17.4336 17.3668 17.1523 17.2808 16.9372C16.7961 15.7212 13.4077 15.1532 12.9905 13.1869C12.8973 12.745 12.8896 12.3687 12.9671 11.893C13.0068 11.6572 13.0798 11.4283 13.184 11.213C5.02049 15.0308 0.244992 19.2316 0.875965 22.8586C2.10596 29.9145 23.3034 32.1139 48.225 27.7749C59.1802 25.868 69.0291 23.0134 76.5247 19.8144C76.4163 19.8198 76.3109 19.8315 76.1984 19.8315C74.4927 19.8315 72.9698 19.1924 72.8118 17.4489C72.7839 17.1316 72.7789 16.9989 72.778 16.818L72.7789 12.8098C72.7789 12.637 72.7992 12.3336 72.8185 12.177C73.0206 10.492 74.3528 9.79715 76.1993 9.79715C77.6283 9.79715 79.3803 10.2071 79.5729 12.1784C79.5986 12.4259 79.5959 12.6901 79.5954 12.7769V13.1554H77.1273V12.5906C77.1273 12.5785 77.1237 12.3674 77.0967 12.2355C77.0562 12.0344 76.8848 11.5681 76.1818 11.5681C75.4874 11.5681 75.3073 12.0353 75.2623 12.236C75.2367 12.3462 75.2245 12.5047 75.2245 12.6802V17.0362C75.2223 17.1875 75.2299 17.3058 75.2452 17.3927C75.2574 17.4611 75.382 18.0614 76.1903 18.0614C76.9928 18.0614 77.117 17.4611 77.1282 17.3927C77.1494 17.2748 77.1521 17.1343 77.1512 17.0362V15.6865H76.18V14.2329H79.6143V16.8189C79.6134 16.9948 79.6107 17.1249 79.581 17.4489C79.5396 17.9062 79.3956 18.2932 79.1697 18.624C87.1189 14.8494 91.7473 10.7166 91.1244 7.14229ZM26.5024 19.6461L25.2521 11.1509H25.2071L23.9249 19.6461H21.2899L23.0622 10.0523H27.3615L29.123 19.6461H26.5024ZM39.1767 19.6461L39.1187 11.3152H39.0764L37.5259 19.6461H35.0529L33.5101 11.3152H33.466L33.4098 19.6461H30.9592L31.1717 10.0523H35.1132L36.2608 17.1789H36.3171L37.4679 10.0523H41.4076L41.6192 19.6461H39.1767ZM50.7165 17.7869C50.4528 19.6452 48.6323 19.9701 47.3456 19.9701C45.2092 19.9701 43.8879 19.057 43.8879 17.1987L43.8892 16.4408H46.4775L46.4793 17.385C46.4793 17.8976 46.8407 18.2113 47.3987 18.2113C47.8965 18.2113 48.1881 18.0115 48.2894 17.601C48.3362 17.4098 48.3555 17.1307 48.2727 16.9201C47.7957 15.727 44.4338 15.1424 44.0251 13.2067C43.9315 12.7679 43.9248 12.3953 44.0017 11.9245C44.2862 10.1698 45.9703 9.80525 47.3258 9.80525C48.5382 9.80525 49.4208 10.0699 49.9501 10.5991C50.3448 10.9943 50.5446 11.5366 50.5446 12.2112V12.9034H48.1242V12.2927C48.1242 11.7697 47.7997 11.4673 47.2781 11.4673C46.8154 11.4673 46.5355 11.673 46.4437 12.0776C46.4139 12.2374 46.4179 12.4018 46.4554 12.56C46.7146 13.6239 50.3115 14.2743 50.7052 16.2284C50.7561 16.4777 50.8259 17.0128 50.7165 17.7869ZM59.6806 16.9152C59.6842 17.0952 59.6667 17.4548 59.6568 17.547C59.5092 19.1276 58.3786 19.931 56.3052 19.931C54.2238 19.931 53.0923 19.1276 52.9456 17.547C52.929 17.3374 52.921 17.1272 52.9218 16.917V10.0501H55.3979V17.1334C55.3952 17.2919 55.4033 17.4089 55.4191 17.4903C55.4497 17.6479 55.6063 18.1591 56.3052 18.1591C57.0019 18.1591 57.1585 17.6474 57.1914 17.4921C57.2053 17.4084 57.2139 17.2856 57.2139 17.133V10.0501H59.6806V16.9152ZM70.3491 19.5484H66.9035L64.5907 11.9493H64.552L64.6803 19.5484H62.2788V10.0523H65.8688L68.0066 17.3522H68.0565L67.9301 10.0523H70.3491V19.5484Z" fill="#2D4F9E"/>
</g>
<defs>
<clipPath id="clip0_5_181">
<rect width="90.3614" height="30" fill="white" transform="translate(0.819279)"/>
</clipPath>
</defs>
</svg>
